<svg width="24" height="24" viewBox="0 0 24 24" fill="none" xmlns="http://www.w3.org/2000/svg">
<path d="M4.13281 18.6348L4.26361 18.4517L10.4492 6.7146L10.4623 6.59034L7.73561 1.46849C7.50705 1.03945 6.86387 1.14794 6.78895 1.62824L4.13281 18.6348Z" fill="#FFC24A"/>
<path d="M4.20996 18.4951L4.30884 18.3022L10.4297 6.68814L7.70975 1.54547C7.48372 1.12093 6.90966 1.22917 6.83548 1.70441L4.20996 18.4951Z" fill="#FFA712"/>
<path d="M12.4503 10.4645L14.4806 8.38528L12.4497 4.50833C12.257 4.14133 11.7187 4.14022 11.528 4.50833L10.4429 6.57754V6.75373L12.4503 10.4645Z" fill="#F4BD62"/>
<path d="M12.414 10.378L14.3878 8.3565L12.414 4.59801C12.2266 4.24124 11.7713 4.20385 11.5858 4.56166L10.4951 6.66303L10.4624 6.77047L12.414 10.378Z" fill="#FFA50E"/>
<path d="M4.13281 18.6348L4.19208 18.5752L4.40746 18.4877L12.3226 10.6019L12.4229 10.329L10.4484 6.56635L4.13281 18.6348Z" fill="#F6820C"/>
<path d="M12.7037 22.6117L19.8671 18.6167L17.8215 6.01825C17.7575 5.62409 17.2739 5.46828 16.9918 5.75088L4.13281 18.6348L11.2551 22.6114C11.4765 22.735 11.7258 22.7999 11.9794 22.8C12.2329 22.8 12.4823 22.7352 12.7037 22.6117Z" fill="#FDE068"/>
<path d="M19.803 18.5831L17.7729 6.08041C17.7095 5.68921 17.3073 5.52736 17.0273 5.80786L4.2124 18.6102L11.2565 22.5475C11.4762 22.6701 11.7236 22.7345 11.9753 22.7346C12.2269 22.7347 12.4743 22.6704 12.6941 22.5478L19.803 18.5831Z" fill="#FCCA3F"/>
<path d="M12.7036 22.494C12.4821 22.6175 12.2328 22.6823 11.9793 22.6823C11.7257 22.6822 11.4764 22.6173 11.2551 22.4937L4.19011 18.5743L4.13281 18.6348L11.2551 22.6115C11.4764 22.7351 11.7258 22.8 11.9793 22.8C12.2329 22.8001 12.4822 22.7353 12.7036 22.6118L19.867 18.6167L19.8495 18.5088L12.7036 22.494Z" fill="#EEAB37"/>
</svg>
