<svg width="24" height="24" viewBox="0 0 24 24" fill="none" xmlns="http://www.w3.org/2000/svg">
<path d="M13.6307 7.0104L13.6091 1.20001H10.3691L10.3908 7.0104L12.0107 9.23526L13.6307 7.0104ZM10.3908 16.968V22.8H13.6307V16.968L12.0107 14.7432L10.3908 16.968Z" fill="white"/>
<path d="M13.6308 16.968L17.0436 21.6768L19.6572 19.776L16.2444 15.0673L13.6308 14.2248V16.968ZM10.3908 7.01039L6.95636 2.30157L4.34277 4.20239L7.7556 8.91121L10.3908 9.7536V7.01039Z" fill="#00F2E6"/>
<path d="M7.75566 8.91122L2.22599 7.11841L1.23242 10.1856L6.76201 12L9.3756 11.136L7.75566 8.91122ZM14.6245 12.8424L16.2444 15.0673L21.7741 16.86L22.7676 13.7928L17.2381 12L14.6245 12.8424Z" fill="#00B9F1"/>
<path d="M17.2381 12L22.7676 10.1856L21.7741 7.11841L16.2444 8.91122L14.6245 11.136L17.2381 12ZM6.76201 12L1.23242 13.7928L2.22599 16.86L7.75566 15.0673L9.3756 12.8424L6.76201 12Z" fill="#D63AFF"/>
<path d="M7.7556 15.0673L4.34277 19.776L6.95636 21.6768L10.3908 16.968V14.2248L7.7556 15.0673ZM16.2444 8.91121L19.6572 4.20239L17.0436 2.30157L13.6308 7.01039V9.7536L16.2444 8.91121Z" fill="#FB015B"/>
</svg>
