<svg width="1152" height="346" viewBox="0 0 1152 346" fill="none" xmlns="http://www.w3.org/2000/svg">
<g clip-path="url(#clip0_3506_511549)">
<mask id="mask0_3506_511549" style="mask-type:alpha" maskUnits="userSpaceOnUse" x="0" y="-19" width="1152" height="384">
<path d="M0 -19H1152V365H0V-19Z" fill="url(#paint0_linear_3506_511549)"/>
</mask>
<g mask="url(#mask0_3506_511549)">
<path d="M69 8.4285V-19H96.4475M69 8.4285H96.4475M69 8.4285V35.857M96.4475 -19V8.4285M96.4475 -19H123.896M96.4475 8.4285H123.896M96.4475 8.4285V35.857M123.896 -19V8.4285M123.896 -19H151.344M123.896 8.4285H151.344M123.896 8.4285V35.857M151.344 -19V8.4285M151.344 -19H178.791M151.344 8.4285H178.791M151.344 8.4285V35.857M178.791 -19V8.4285M178.791 -19H206.239M178.791 8.4285H206.239M178.791 8.4285V35.857M206.239 -19V8.4285M206.239 -19H233.686M206.239 8.4285H233.686M206.239 8.4285V35.857M233.686 -19V8.4285M233.686 -19H261.134M233.686 8.4285H261.134M233.686 8.4285V35.857M261.134 -19V8.4285M261.134 -19H288.582M261.134 8.4285H288.582M261.134 8.4285V35.857M288.582 -19V8.4285M288.582 -19H316.03M288.582 8.4285H316.03M288.582 8.4285L288.581 35.857M316.03 -19V8.4285M316.03 -19H343.477M316.03 8.4285H343.477M316.03 8.4285L316.029 35.857M343.477 -19V8.4285M343.477 -19H370.925M343.477 8.4285H370.925M343.477 8.4285L343.476 35.857M370.925 -19V8.4285M370.925 -19H398.372M370.925 8.4285H398.372M370.925 8.4285V35.857M398.372 -19V8.4285M398.372 -19H425.821M398.372 8.4285H425.821M398.372 8.4285V35.857M425.821 -19V8.4285M425.821 -19H453.268M425.821 8.4285H453.268M425.821 8.4285V35.857M453.268 -19V8.4285M453.268 -19H480.716M453.268 8.4285H480.716M453.268 8.4285V35.857M480.716 -19V8.4285M480.716 -19H508.163M480.716 8.4285H508.163M480.716 8.4285V35.857M508.163 -19V8.4285M508.163 -19H535.611M508.163 8.4285H535.611M508.163 8.4285V35.857M535.611 -19V8.4285M535.611 -19H563.058M535.611 8.4285H563.058M535.611 8.4285V35.857M563.058 -19V8.4285M563.058 -19H590.506M563.058 8.4285H590.506M563.058 8.4285V35.857M590.506 -19V8.4285M590.506 -19H617.953M590.506 8.4285H617.953M590.506 8.4285V35.857M617.953 -19V8.4285M617.953 -19H645.401M617.953 8.4285H645.401M617.953 8.4285V35.857M645.401 -19V8.4285M645.401 -19H672.848M645.401 8.4285H672.848M645.401 8.4285V35.857M672.848 -19V8.4285M672.848 -19H700.296M672.848 8.4285H700.296M672.848 8.4285V35.857M700.296 -19V8.4285M700.296 -19H727.744M700.296 8.4285H727.744M700.296 8.4285V35.857M727.744 -19V8.4285M727.744 -19H755.192M727.744 8.4285H755.192M727.744 8.4285V35.857M755.192 -19V8.4285M755.192 -19H782.64M755.192 8.4285H782.64M755.192 8.4285V35.857M782.64 -19V8.4285M782.64 -19H810.088M782.64 8.4285H810.088M782.64 8.4285V35.857M810.088 -19V8.4285M810.088 -19H837.536M810.088 8.4285H837.536M810.088 8.4285V35.857M837.536 -19V8.4285M837.536 -19H864.983M837.536 8.4285H864.983M837.536 8.4285V35.857M864.983 -19V8.4285M864.983 -19H892.43M864.983 8.4285H892.43M864.983 8.4285V35.857M892.43 -19V8.4285M892.43 -19H919.876M892.43 8.4285H919.876M892.43 8.4285V35.857M919.876 -19V8.4285M919.876 -19H947.323M919.876 8.4285H947.323M919.876 8.4285V35.857M947.323 -19V8.4285M947.323 -19H974.769V8.4285M947.323 8.4285H974.769M947.323 8.4285V35.857M974.769 8.4285V35.857M1002.23 -19H974.778V8.4285M1002.23 -19V8.4285M1002.23 -19H1029.67M1002.23 8.4285H974.778M1002.23 8.4285H1029.67M1002.23 8.4285V35.857M974.778 8.4285V35.857M1029.67 -19V8.4285M1029.67 -19H1057.12M1029.67 8.4285H1057.12M1029.67 8.4285V35.857M1057.12 -19V8.4285M1057.12 -19H1083V8.4285M1057.12 8.4285H1083M1057.12 8.4285V35.857M1083 8.4285V35.857M69 35.857H96.4475M69 35.857V63.2855M96.4475 35.857H123.896M96.4475 35.857V63.2855M123.896 35.857H151.344M123.896 35.857V63.2855M151.344 35.857H178.791M151.344 35.857V63.2855M178.791 35.857H206.239M178.791 35.857V63.2855M206.239 35.857H233.686M206.239 35.857V63.2855M233.686 35.857H261.134M233.686 35.857V63.2855M261.134 35.857H288.581M261.134 35.857V63.2855M288.581 35.857H316.029M288.581 35.857V63.2855M316.029 35.857H343.476M316.029 35.857V63.2855M343.476 35.857H370.925M343.476 35.857V63.2855M370.925 35.857H398.372M370.925 35.857V63.2855M398.372 35.857H425.821M398.372 35.857V63.2855M425.821 35.857H453.268M425.821 35.857V63.2855M453.268 35.857H480.716M453.268 35.857V63.2855M480.716 35.857H508.163M480.716 35.857V63.2855M508.163 35.857H535.611M508.163 35.857V63.2855M535.611 35.857H563.058M535.611 35.857V63.2855M563.058 35.857H590.506M563.058 35.857V63.2855M590.506 35.857H617.953M590.506 35.857V63.2855M617.953 35.857H645.401M617.953 35.857V63.2855M645.401 35.857H672.848M645.401 35.857V63.2855M672.848 35.857H700.296M672.848 35.857V63.2855M700.296 35.857H727.744M700.296 35.857V63.2855M727.744 35.857H755.192M727.744 35.857V63.2855M755.192 35.857H782.64M755.192 35.857V63.2855M782.64 35.857H810.088M782.64 35.857V63.2855M810.088 35.857H837.536M810.088 35.857V63.2855M837.536 35.857H864.983M837.536 35.857V63.2855M864.983 35.857H892.43M864.983 35.857V63.2855M892.43 35.857H919.876M892.43 35.857V63.2855M919.876 35.857H947.323M919.876 35.857V63.2855M947.323 35.857H974.769M947.323 35.857V63.2855M974.769 35.857V63.2855M1002.23 35.857H974.778M1002.23 35.857H1029.67M1002.23 35.857V63.2855M974.778 35.857V63.2855M1029.67 35.857H1057.12M1029.67 35.857V63.2855M1057.12 35.857H1083M1057.12 35.857V63.2855M1083 35.857V63.2855M69 63.2855L96.4475 63.2855M69 63.2855V90.714M96.4475 63.2855H123.896M96.4475 63.2855V90.714M123.896 63.2855H151.344M123.896 63.2855V90.714M151.344 63.2855H178.791M151.344 63.2855V90.714M178.791 63.2855H206.239M178.791 63.2855V90.714M206.239 63.2855H233.686M206.239 63.2855V90.714M233.686 63.2855H261.134M233.686 63.2855V90.714M261.134 63.2855H288.581M261.134 63.2855V90.714M288.581 63.2855H316.029M288.581 63.2855V90.714M316.029 63.2855H343.476M316.029 63.2855V90.714M343.476 63.2855H370.925M343.476 63.2855V90.714M370.925 63.2855H398.372M370.925 63.2855V90.714M398.372 63.2855H425.821M398.372 63.2855V90.714M425.821 63.2855H453.268M425.821 63.2855V90.714M453.268 63.2855H480.716M453.268 63.2855V90.714M480.716 63.2855H508.163M480.716 63.2855V90.714M508.163 63.2855H535.611M508.163 63.2855V90.714M535.611 63.2855H563.058M535.611 63.2855V90.714M563.058 63.2855H590.506M563.058 63.2855V90.714M590.506 63.2855H617.953M590.506 63.2855V90.714M617.953 63.2855H645.401M617.953 63.2855V90.714M645.401 63.2855H672.848M645.401 63.2855V90.714M672.848 63.2855H700.296M672.848 63.2855V90.714M700.296 63.2855H727.744M700.296 63.2855V90.714M727.744 63.2855H755.192M727.744 63.2855V90.714M755.192 63.2855H782.64M755.192 63.2855V90.714M782.64 63.2855H810.088M782.64 63.2855V90.714M810.088 63.2855H837.536M810.088 63.2855V90.714M837.536 63.2855H864.983M837.536 63.2855V90.714M864.983 63.2855H892.43M864.983 63.2855V90.714M892.43 63.2855H919.876M892.43 63.2855V90.714M919.876 63.2855H947.323M919.876 63.2855V90.714M947.323 63.2855H974.769M947.323 63.2855V90.714M974.769 63.2855V90.714M1002.23 63.2855H974.778M1002.23 63.2855H1029.67M1002.23 63.2855V90.714M974.778 63.2855V90.714M1029.67 63.2855H1057.12M1029.67 63.2855V90.714M1057.12 63.2855H1083M1057.12 63.2855V90.714M1083 63.2855V90.714M69 90.714L96.4475 90.714M69 90.714V118.142M96.4475 90.714H123.896M96.4475 90.714V118.142M123.896 90.714H151.344M123.896 90.714V118.142M151.344 90.714H178.791M151.344 90.714V118.142M178.791 90.714H206.239M178.791 90.714V118.142M206.239 90.714H233.686M206.239 90.714V118.142M233.686 90.714H261.134M233.686 90.714V118.142M261.134 90.714H288.581M261.134 90.714V118.142M288.581 90.714H316.029M288.581 90.714V118.142M316.029 90.714H343.476M316.029 90.714V118.142M343.476 90.714H370.925M343.476 90.714V118.142M370.925 90.714H398.372M370.925 90.714V118.142M398.372 90.714H425.821M398.372 90.714V118.142M425.821 90.714H453.268M425.821 90.714V118.142M453.268 90.714H480.716M453.268 90.714V118.142M480.716 90.714H508.163M480.716 90.714V118.142M508.163 90.714H535.611M508.163 90.714V118.142M535.611 90.714H563.058M535.611 90.714V118.142M563.058 90.714H590.506M563.058 90.714V118.142M590.506 90.714H617.953M590.506 90.714V118.142M617.953 90.714H645.401M617.953 90.714V118.142M645.401 90.714H672.848M645.401 90.714V118.142M672.848 90.714H700.296M672.848 90.714V118.142M700.296 90.714H727.744M700.296 90.714V118.142M727.744 90.714H755.192M727.744 90.714V118.142M755.192 90.714H782.64M755.192 90.714V118.142M782.64 90.714H810.088M782.64 90.714V118.142M810.088 90.714H837.536M810.088 90.714V118.142M837.536 90.714H864.983M837.536 90.714V118.142M864.983 90.714H892.43M864.983 90.714V118.142M892.43 90.714H919.876M892.43 90.714V118.142M919.876 90.714H947.323M919.876 90.714V118.142M947.323 90.714H974.769M947.323 90.714V118.142M974.769 90.714V118.142M1002.23 90.714H974.778M1002.23 90.714H1029.67M1002.23 90.714V118.142M974.778 90.714V118.142M1029.67 90.714H1057.12M1029.67 90.714V118.142M1057.12 90.714H1083M1057.12 90.714V118.142M1083 90.714V118.142M69 118.142H96.4475M69 118.142V145.572M96.4475 118.142H123.896M96.4475 118.142V145.572M123.896 118.142H151.344M123.896 118.142L96.4485 118.144L96.4475 145.572M123.896 118.142V145.572M151.344 118.142H178.791M151.344 118.142V145.572M178.791 118.142H206.239M178.791 118.142V145.572M206.239 118.142H233.686M206.239 118.142V145.572M233.686 118.142H261.134M233.686 118.142V145.572M261.134 118.142H288.581M261.134 118.142V145.572M288.581 118.142H316.029M288.581 118.142V145.572M316.029 118.142H343.476M316.029 118.142V145.572M343.476 118.142H370.925M343.476 118.142V145.572M370.925 118.142H398.372M370.925 118.142V145.572M398.372 118.142H425.821M398.372 118.142V145.572M425.821 118.142H453.268M425.821 118.142V145.572M453.268 118.142H480.716M453.268 118.142V145.572M480.716 118.142H508.163M480.716 118.142V145.572M508.163 118.142H535.611M508.163 118.142V145.572M535.611 118.142H563.058M535.611 118.142V145.572M563.058 118.142H590.506M563.058 118.142V145.572M590.506 118.142H617.953M590.506 118.142V145.572M617.953 118.142H645.401M617.953 118.142V145.572M645.401 118.142H672.848M645.401 118.142V145.572M672.848 118.142H700.296M672.848 118.142V145.572M700.296 118.142H727.744M700.296 118.142V145.572M727.744 118.142H755.192M727.744 118.142V145.572M755.192 118.142H782.64M755.192 118.142V145.572M782.64 118.142H810.088M782.64 118.142V145.572M810.088 118.142H837.536M810.088 118.142L782.641 118.144L782.64 145.572M810.088 118.142V145.572M837.536 118.142H864.983M837.536 118.142V145.572M864.983 118.142H892.43M864.983 118.142V145.572M892.43 118.142H919.876M892.43 118.142V145.572M919.876 118.142H947.323M919.876 118.142V145.572M947.323 118.142H974.769M947.323 118.142V145.572M974.769 118.142V145.572M1002.23 118.142H974.778M1002.23 118.142H1029.67M1002.23 118.142V145.572M974.778 118.142V145.572M1029.67 118.142H1057.12M1029.67 118.142V145.572M1057.12 118.142H1083M1057.12 118.142V145.572M1083 118.142V145.572M69 145.572H96.4475M69 145.572V173.001M96.4475 145.572H123.896M96.4475 145.572V173.001M123.896 145.572H151.344M123.896 145.572V173.001M151.344 145.572H178.791M151.344 145.572V173.001M178.791 145.572H206.239M178.791 145.572V173.001M206.239 145.572H233.686M206.239 145.572V173.001M233.686 145.572H261.134M233.686 145.572V173.001M261.134 145.572H288.581M261.134 145.572V173.001M288.581 145.572H316.029M288.581 145.572V173.001M316.029 145.572H343.476M316.029 145.572V173.001M343.476 145.572H370.925M343.476 145.572V173.001M370.925 145.572H398.372M370.925 145.572V173.001M398.372 145.572H425.821M398.372 145.572V173.001M425.821 145.572H453.268M425.821 145.572V173.001M453.268 145.572H480.716M453.268 145.572V173.001M480.716 145.572H508.163M480.716 145.572V173.001M508.163 145.572H535.611M508.163 145.572V173.001M535.611 145.572H563.058M535.611 145.572V173.001M563.058 145.572H590.506M563.058 145.572V173.001M590.506 145.572H617.953M590.506 145.572V173.001M617.953 145.572H645.401M617.953 145.572V173.001M645.401 145.572H672.848M645.401 145.572V173.001M672.848 145.572H700.296M672.848 145.572V173.001M700.296 145.572H727.744M700.296 145.572V173.001M727.744 145.572H755.192M727.744 145.572V173.001M755.192 145.572H782.64M755.192 145.572V173.001M782.64 145.572H810.088M782.64 145.572V173.001M810.088 145.572H837.536M810.088 145.572V173.001M837.536 145.572H864.983M837.536 145.572V173.001M864.983 145.572H892.43M864.983 145.572V173.001M892.43 145.572H919.876M892.43 145.572V173.001M919.876 145.572H947.323M919.876 145.572V173.001M947.323 145.572H974.769M947.323 145.572V173.001M974.769 145.572V173.001M1002.23 145.572H974.778M1002.23 145.572H1029.67M1002.23 145.572V173.001M974.778 145.572V173.001M1029.67 145.572H1057.12M1029.67 145.572V173.001M1057.12 145.572H1083M1057.12 145.572V173.001M1083 145.572V173.001M69 173.001H96.4475M69 173.001V200.429M96.4475 173.001H123.896M96.4475 173.001V200.429M123.896 173.001H151.344M123.896 173.001V200.429M151.344 173.001H178.791M151.344 173.001V200.429M178.791 173.001H206.239M178.791 173.001V200.429M206.239 173.001H233.686M206.239 173.001V200.429M233.686 173.001H261.134M233.686 173.001V200.429M261.134 173.001H288.581M261.134 173.001V200.429M288.581 173.001H316.029M288.581 173.001V200.429M316.029 173.001H343.476M316.029 173.001V200.429M343.476 173.001H370.925M343.476 173.001V200.429M370.925 173.001H398.372M370.925 173.001V200.429M398.372 173.001H425.821M398.372 173.001V200.429M425.821 173.001H453.268M425.821 173.001V200.429M453.268 173.001H480.716M453.268 173.001V200.429M480.716 173.001H508.163M480.716 173.001V200.429M508.163 173.001H535.611M508.163 173.001V200.429M535.611 173.001H563.058M535.611 173.001V200.429M563.058 173.001H590.506M563.058 173.001V200.429M590.506 173.001H617.953M590.506 173.001V200.429M617.953 173.001H645.401M617.953 173.001V200.429M645.401 173.001H672.848M645.401 173.001V200.429M672.848 173.001H700.296M672.848 173.001V200.429M700.296 173.001H727.744M700.296 173.001V200.429M727.744 173.001H755.192M727.744 173.001V200.429M755.192 173.001H782.64M755.192 173.001V200.429M782.64 173.001H810.088M782.64 173.001V200.429M810.088 173.001H837.536M810.088 173.001V200.429M837.536 173.001H864.983M837.536 173.001V200.429M864.983 173.001H892.43M864.983 173.001V200.429M892.43 173.001H919.876M892.43 173.001V200.429M919.876 173.001H947.323M919.876 173.001V200.429M947.323 173.001H974.769M947.323 173.001V200.429M974.769 173.001V200.429M1002.23 173.001H974.778M1002.23 173.001H1029.67M1002.23 173.001V200.429M974.778 173.001V200.429M1029.67 173.001H1057.12M1029.67 173.001V200.429M1057.12 173.001H1083M1057.12 173.001V200.429M1083 173.001V200.429M69 200.429H96.4475M69 200.429V227.858M96.4475 200.429H123.896M96.4475 200.429V227.858M123.896 200.429H151.344M123.896 200.429V227.858M151.344 200.429H178.791M151.344 200.429V227.858M178.791 200.429H206.239M178.791 200.429V227.858M206.239 200.429H233.686M206.239 200.429V227.858M233.686 200.429H261.134M233.686 200.429V227.858M261.134 200.429H288.581M261.134 200.429V227.858M288.581 200.429H316.029M288.581 200.429V227.858M316.029 200.429H343.476M316.029 200.429V227.858M343.476 200.429H370.925M343.476 200.429V227.858M370.925 200.429H398.372M370.925 200.429V227.858M398.372 200.429H425.821M398.372 200.429V227.858M425.821 200.429H453.268M425.821 200.429V227.858M453.268 200.429H480.716M453.268 200.429V227.858M480.716 200.429H508.163M480.716 200.429V227.858M508.163 200.429H535.611M508.163 200.429V227.858M535.611 200.429H563.058M535.611 200.429V227.858M563.058 200.429H590.506M563.058 200.429V227.858M590.506 200.429H617.953M590.506 200.429V227.858M617.953 200.429H645.401M617.953 200.429V227.858M645.401 200.429H672.848M645.401 200.429V227.858M672.848 200.429H700.296M672.848 200.429V227.858M700.296 200.429H727.744M700.296 200.429V227.858M727.744 200.429H755.192M727.744 200.429V227.858M755.192 200.429H782.64M755.192 200.429V227.858M782.64 200.429H810.088M782.64 200.429V227.858M810.088 200.429H837.536M810.088 200.429V227.858M837.536 200.429H864.983M837.536 200.429V227.858M864.983 200.429H892.43M864.983 200.429V227.858M892.43 200.429H919.876M892.43 200.429V227.858M919.876 200.429H947.323M919.876 200.429V227.858M947.323 200.429H974.769M947.323 200.429V227.858M974.769 200.429V227.858M1002.23 200.429H974.778M1002.23 200.429H1029.67M1002.23 200.429V227.858M974.778 200.429V227.858M1029.67 200.429H1057.12M1029.67 200.429V227.858M1057.12 200.429H1083M1057.12 200.429V227.858M1083 200.429V227.858M69 227.858H96.4475M69 227.858V255.286M96.4475 227.858H123.896M96.4475 227.858V255.286M123.896 227.858H151.344M123.896 227.858V255.286M151.344 227.858H178.791M151.344 227.858V255.286M178.791 227.858H206.239M178.791 227.858V255.286M206.239 227.858H233.686M206.239 227.858V255.286M233.686 227.858H261.134M233.686 227.858V255.286M261.134 227.858H288.581M261.134 227.858V255.286M288.581 227.858H316.029M288.581 227.858V255.286M316.029 227.858H343.476M316.029 227.858V255.286M343.476 227.858H370.925M343.476 227.858V255.286M370.925 227.858H398.372M370.925 227.858V255.286M398.372 227.858H425.821M398.372 227.858V255.286M425.821 227.858H453.268M425.821 227.858V255.286M453.268 227.858H480.716M453.268 227.858V255.286M480.716 227.858H508.163M480.716 227.858V255.286M508.163 227.858H535.611M508.163 227.858V255.286M535.611 227.858H563.058M535.611 227.858V255.286M563.058 227.858H590.506M563.058 227.858V255.286M590.506 227.858H617.953M590.506 227.858V255.286M617.953 227.858H645.401M617.953 227.858V255.286M645.401 227.858H672.848M645.401 227.858V255.286M672.848 227.858H700.296M672.848 227.858V255.286M700.296 227.858H727.744M700.296 227.858V255.286M727.744 227.858H755.192M727.744 227.858V255.286M755.192 227.858H782.64M755.192 227.858V255.286M782.64 227.858H810.088M782.64 227.858V255.286M810.088 227.858H837.536M810.088 227.858V255.286M837.536 227.858H864.983M837.536 227.858V255.286M864.983 227.858H892.43M864.983 227.858V255.286M892.43 227.858H919.876M892.43 227.858V255.286M919.876 227.858H947.323M919.876 227.858V255.286M947.323 227.858H974.769M947.323 227.858V255.286M974.769 227.858V255.286M1002.23 227.858H974.778M1002.23 227.858H1029.67M1002.23 227.858V255.286M974.778 227.858V255.286M1029.67 227.858H1057.12M1029.67 227.858V255.286M1057.12 227.858H1083M1057.12 227.858V255.286M1083 227.858V255.286M69 255.286H96.4475M69 255.286V282.715M96.4475 255.286H123.896M96.4475 255.286V282.715M123.896 255.286H151.344M123.896 255.286V282.715M151.344 255.286H178.791M151.344 255.286V282.715M178.791 255.286H206.239M178.791 255.286V282.715M206.239 255.286H233.686M206.239 255.286V282.715M233.686 255.286H261.134M233.686 255.286V282.715M261.134 255.286H288.581M261.134 255.286V282.715M288.581 255.286H316.029M288.581 255.286V282.715M316.029 255.286H343.476M316.029 255.286V282.715M343.476 255.286H370.925M343.476 255.286V282.715M370.925 255.286H398.372M370.925 255.286V282.715M398.372 255.286H425.821M398.372 255.286V282.715M425.821 255.286H453.268M425.821 255.286V282.715M453.268 255.286H480.716M453.268 255.286V282.715M480.716 255.286H508.163M480.716 255.286V282.715M508.163 255.286H535.611M508.163 255.286V282.715M535.611 255.286H563.058M535.611 255.286V282.715M563.058 255.286H590.506M563.058 255.286V282.715M590.506 255.286H617.953M590.506 255.286V282.715M617.953 255.286H645.401M617.953 255.286V282.715M645.401 255.286H672.848M645.401 255.286V282.715M672.848 255.286H700.296M672.848 255.286V282.715M700.296 255.286H727.744M700.296 255.286V282.715M727.744 255.286H755.192M727.744 255.286V282.715M755.192 255.286H782.64M755.192 255.286V282.715M782.64 255.286H810.088M782.64 255.286V282.715M810.088 255.286H837.536M810.088 255.286V282.715M837.536 255.286H864.983M837.536 255.286V282.715M864.983 255.286H892.43M864.983 255.286V282.715M892.43 255.286H919.876M892.43 255.286V282.715M919.876 255.286H947.323M919.876 255.286V282.715M947.323 255.286H974.769M947.323 255.286V282.715M974.769 255.286V282.715M1002.23 255.286H974.778M1002.23 255.286H1029.67M1002.23 255.286V282.715M974.778 255.286V282.715M1029.67 255.286H1057.12M1029.67 255.286V282.715M1057.12 255.286H1083M1057.12 255.286V282.715M1083 255.286V282.715M69 282.715H96.4475M69 282.715V310.143M96.4475 282.715H123.896M96.4475 282.715V310.143M123.896 282.715H151.344M123.896 282.715V310.143M151.344 282.715H178.791M151.344 282.715V310.143M178.791 282.715H206.239M178.791 282.715V310.143M206.239 282.715H233.686M206.239 282.715V310.143M233.686 282.715H261.134M233.686 282.715V310.143M261.134 282.715H288.581M261.134 282.715V310.143M288.581 282.715H316.029M288.581 282.715V310.143M316.029 282.715H343.476M316.029 282.715V310.143M343.476 282.715H370.925M343.476 282.715V310.143M370.925 282.715H398.372M370.925 282.715V310.143M398.372 282.715H425.821M398.372 282.715V310.143M425.821 282.715H453.268M425.821 282.715V310.143M453.268 282.715H480.716M453.268 282.715V310.143M480.716 282.715H508.163M480.716 282.715V310.143M508.163 282.715H535.611M508.163 282.715V310.143M535.611 282.715H563.058M535.611 282.715V310.143M563.058 282.715H590.506M563.058 282.715V310.143M590.506 282.715H617.953M590.506 282.715V310.143M617.953 282.715H645.401M617.953 282.715V310.143M645.401 282.715H672.848M645.401 282.715V310.143M672.848 282.715H700.296M672.848 282.715V310.143M700.296 282.715H727.744M700.296 282.715V310.143M727.744 282.715H755.192M727.744 282.715V310.143M755.192 282.715H782.64M755.192 282.715V310.143M782.64 282.715H810.088M782.64 282.715V310.143M810.088 282.715H837.536M810.088 282.715V310.143M837.536 282.715H864.983M837.536 282.715V310.143M864.983 282.715H892.43M864.983 282.715V310.143M892.43 282.715H919.876M892.43 282.715V310.143M919.876 282.715H947.323M919.876 282.715V310.143M947.323 282.715H974.769M947.323 282.715V310.143M974.769 282.715V310.143M1002.23 282.715H974.778M1002.23 282.715H1029.67M1002.23 282.715V310.143M974.778 282.715V310.143M1029.67 282.715H1057.12M1029.67 282.715V310.143M1057.12 282.715H1083M1057.12 282.715V310.143M1083 282.715V310.143M69 310.143H96.4475M69 310.143V337.572M96.4475 310.143H123.896M96.4475 310.143V337.572M123.896 310.143H151.344M123.896 310.143V337.572M151.344 310.143H178.791M151.344 310.143V337.572M178.791 310.143H206.239M178.791 310.143V337.572M206.239 310.143H233.686M206.239 310.143V337.572M233.686 310.143H261.134M233.686 310.143V337.572M261.134 310.143H288.581M261.134 310.143V337.572M288.581 310.143H316.029M288.581 310.143V337.572M316.029 310.143H343.476M316.029 310.143V337.572M343.476 310.143H370.925M343.476 310.143V337.572M370.925 310.143H398.372M370.925 310.143V337.572M398.372 310.143H425.821M398.372 310.143V337.572M425.821 310.143H453.268M425.821 310.143V337.572M453.268 310.143H480.716M453.268 310.143V337.572M480.716 310.143H508.163M480.716 310.143V337.572M508.163 310.143H535.611M508.163 310.143V337.572M535.611 310.143H563.058M535.611 310.143V337.572M563.058 310.143H590.506M563.058 310.143V337.572M590.506 310.143H617.953M590.506 310.143V337.572M617.953 310.143H645.401M617.953 310.143V337.572M645.401 310.143H672.848M645.401 310.143V337.572M672.848 310.143H700.296M672.848 310.143V337.572M700.296 310.143H727.744M700.296 310.143V337.572M727.744 310.143H755.192M727.744 310.143V337.572M755.192 310.143H782.64M755.192 310.143V337.572M782.64 310.143H810.088M782.64 310.143V337.572M810.088 310.143H837.536M810.088 310.143V337.572M837.536 310.143H864.983M837.536 310.143V337.572M864.983 310.143H892.43M864.983 310.143V337.572M892.43 310.143H919.876M892.43 310.143V337.572M919.876 310.143H947.323M919.876 310.143V337.572M947.323 310.143H974.769M947.323 310.143V337.572M974.769 310.143V337.572M1002.23 310.143H974.778M1002.23 310.143H1029.67M1002.23 310.143V337.572M974.778 310.143V337.572M1029.67 310.143H1057.12M1029.67 310.143V337.572M1057.12 310.143H1083M1057.12 310.143V337.572M1083 310.143V337.572M69 337.572H96.4475M69 337.572V365H96.4475M96.4475 337.572H123.896M96.4475 337.572V365M123.896 337.572H151.344M123.896 337.572V365M151.344 337.572H178.791M151.344 337.572V365M178.791 337.572H206.239M178.791 337.572V365M206.239 337.572H233.686M206.239 337.572V365M233.686 337.572H261.134M233.686 337.572V365M261.134 337.572H288.581M261.134 337.572V365M288.581 337.572H316.029M288.581 337.572V365M316.029 337.572H343.476M316.029 337.572V365M343.476 337.572H370.925M343.476 337.572V365M370.925 337.572H398.372M370.925 337.572V365M398.372 337.572H425.821M398.372 337.572V365M425.821 337.572H453.268M425.821 337.572V365M453.268 337.572H480.716M453.268 337.572V365M480.716 337.572H508.163M480.716 337.572V365M508.163 337.572H535.611M508.163 337.572V365M535.611 337.572H563.058M535.611 337.572V365M563.058 337.572H590.506M563.058 337.572V365M590.506 337.572H617.953M590.506 337.572V365M617.953 337.572H645.401M617.953 337.572V365M645.401 337.572H672.848M645.401 337.572V365M672.848 337.572H700.296M672.848 337.572V365M700.296 337.572H727.744M700.296 337.572V365M727.744 337.572H755.192M727.744 337.572V365M755.192 337.572H782.64M755.192 337.572V365M782.64 337.572H810.088M782.64 337.572V365M810.088 337.572H837.536M810.088 337.572V365M837.536 337.572H864.983M837.536 337.572V365M864.983 337.572H892.43M864.983 337.572V365M892.43 337.572H919.876M892.43 337.572V365M919.876 337.572H947.323M919.876 337.572V365M947.323 337.572H974.769M947.323 337.572V365M974.769 337.572V365H947.323M1002.23 337.572H974.778M1002.23 337.572H1029.67M1002.23 337.572V365M974.778 337.572V365H1002.23M1029.67 337.572H1057.12M1029.67 337.572V365M1057.12 337.572H1083M1057.12 337.572V365M1083 337.572V365H1057.12M96.4475 365H123.896M123.896 365H151.344M151.344 365H178.791M178.791 365H206.239M206.239 365H233.686M233.686 365H261.134M261.134 365H288.581M288.581 365H316.029M316.029 365H343.476M343.476 365H370.925M370.925 365H398.372M398.372 365H425.821M425.821 365H453.268M453.268 365H480.716M480.716 365H508.163M508.163 365H535.611M535.611 365H563.058M563.058 365H590.506M590.506 365H617.953M617.953 365H645.401M645.401 365H672.848M672.848 365H700.296M700.296 365H727.744M727.744 365H755.192M755.192 365H782.64M782.64 365H810.088M810.088 365H837.536M837.536 365H864.983M864.983 365H892.43M892.43 365H919.876M919.876 365H947.323M1002.23 365H1029.67M1029.67 365H1057.12" stroke="black"/>
</g>
</g>
<defs>
<linearGradient id="paint0_linear_3506_511549" x1="1152" y1="-19" x2="-26.4075" y2="248.797" gradientUnits="userSpaceOnUse">
<stop stop-color="#D9D9D9" stop-opacity="0.09"/>
<stop offset="0.245723" stop-color="white" stop-opacity="0.6"/>
<stop offset="0.498133" stop-color="white" stop-opacity="0"/>
<stop offset="0.754231" stop-color="white" stop-opacity="0.3"/>
<stop offset="1" stop-color="#D9D9D9" stop-opacity="0"/>
</linearGradient>
<clipPath id="clip0_3506_511549">
<rect width="1152" height="346" fill="white"/>
</clipPath>
</defs>
</svg>
